# xmcd
#
# Track frame offsets:
# 150
# 14900
# 36266
# 58455
# 71572
# 86666
# 103901
# 119951
# 137227
# 150168
# 167331
# 183302
# 207408
# 234277
#
# Disc length: 4161 seconds
#
#
# Revision: 0
# Processed by: cddbd v1.5PL3 Copyright (c) Steve Scherf et al.
# Submitted via: FreeRIP 2.53 
#
DISCID=cc103f0e
DTITLE=Dianna Corcoran - Little Bit Crazy
DYEAR=1900
DGENRE=Country
TTITLE0=Little Bit Crazy
TTITLE1=Let it Rain
TTITLE2=Why Do I Cry
TTITLE3=September's Sweet Child
TTITLE4=I'll Fly Away
TTITLE5=Fire and Ice
TTITLE6=Keep Coming Back
TTITLE7=Country Heart
TTITLE8=Odd One Out
TTITLE9=The Mountain
TTITLE10=Here She Stands
TTITLE11=The River Wild and Deeper
TTITLE12=Mocking Bird Yodel
TTITLE13=Video - Little Bit Crazy
EXTD=
EXTT0=
EXTT1=
EXTT2=
EXTT3=
EXTT4=
EXTT5=
EXTT6=
EXTT7=
EXTT8=
EXTT9=
EXTT10=
EXTT11=
EXTT12=
EXTT13=
PLAYORDER=
